PathFileType	4	(X/Y/Z)	C:/Users/beibeiliu/ov580/test_trc\sequence.12_training_dense_right.trc
DataRate	CameraRate	NumFrames	NumMarkers	Units	OrigDataRate	OrigDataStartFrame	OrigNumFrames
120	120	14	19	mm	120	1	89
Frame#	Time	ThumbCMC			ThumbMCP			ThumbIP			ThumbTip			IndexMCP			IndexPIP			IndexTip			MiddleMCP			MiddlePIP			MiddleTip			RingMCP			RingPIP			RingTip			PinkyMCP			PinkyPIP			PinkyTip			BackHand1			BackHand2			BackHand3	
		X0	Y0	Z0	X1	Y1	Z1	X2	Y2	Z2	X3	Y3	Z3	X4	Y4	Z4	X5	Y5	Z5	X6	Y6	Z6	X7	Y7	Z7	X8	Y8	Z8	X9	Y9	Z9	X10	Y10	Z10	X11	Y11	Z11	X12	Y12	Z12	X13	Y13	Z13	X14	Y14	Z14	X15	Y15	Z15	X16	Y16	Z16	X17	Y17	Z17	X18	Y18	Z18	
0	0	17.1423	50.0222	46.2297	-7.02831	40.8937	28.0542	-16.3112	36.2758	5.6879	-23.1033	31.2263	-12.3037	12.4884	58.4702	-22.1756	5.58767	48.0206	-46.704	-3.21644	38.5451	-62.753	35.7922	55.3974	-31.6558	27.8935	46.9611	-54.8613	26.3306	30.3534	-77.6303	52.8361	49.1351	-28.2935	50.0641	41.1385	-51.2124	48.284	29.4053	-71.374	71.3456	41.6999	-18.2792	74.931	34.7446	-36.4759	78.0693	28.0725	-52.5973	58.7328	61.9098	15.9489	62.3161	66.7535	43.096	35.9195	69.2893	33.7063	
1	0.00833333	14.0172	49.9555	42.3442	-2.7339	39.7044	28.9836	-14.5288	35.7337	4.51154	-25.6477	29.1512	-9.37483	12.1768	56.7392	-21.3934	3.2963	48.5804	-45.6309	-0.0687892	34.9483	-65.2907	31.9272	54.918	-29.4624	26.2122	44.1902	-57.309	25.3044	29.2302	-78.5844	49.9603	48.7674	-29.6581	54.4282	40.1518	-47.8523	46.903	29.3284	-69.8606	70.3266	41.1721	-16.7346	74.7887	33.9784	-36.7597	73.2277	26.945	-54.9788	57.9692	61.013	16.7542	61.8329	65.3978	43.2524	34.2839	69.8521	31.2876	
2	0.0166667	13.7728	48.1356	48.4882	-2.43801	38.5523	27.0992	-15.5878	34.4168	6.13501	-22.416	29.4236	-10.5005	12.5301	55.7048	-21.0775	3.37672	49.0559	-41.2605	1.30763	36.3995	-62.2349	31.2896	53.043	-33.6093	26.2976	43.8183	-56.0206	25.9619	27.8087	-78.7952	52.9848	47.6882	-27.6646	50.4916	40.3272	-46.4945	48.0517	28.6734	-67.6363	70.7146	41.9062	-17.5815	74.4902	33.7982	-33.3033	74.1943	28.7663	-50.7207	58.6065	60.575	16.3814	64.2234	65.3277	40.8927	36.3801	69.074	33.2594	
3	0.025	11.8609	49.2014	45.1663	-5.05078	39.0479	29.2647	-15.2936	35.7878	3.92714	-24.7916	29.5007	-12.2376	10.3199	57.5616	-19.4275	2.47259	48.3974	-45.6411	1.71636	36.5921	-64.4331	35.4403	54.4969	-32.4808	30.1095	44.1754	-57.9179	28.8149	29.4332	-77.8091	51.1073	49.8217	-29.7499	51.1062	40.5441	-51.1157	46.5042	29.5147	-68.4588	70.3289	43.1288	-16.7039	73.0851	36.1955	-32.0011	75.175	28.236	-54.6122	55.5583	63.6039	16.4376	62.5266	64.2089	43.5856	31.5005	69.1949	30.0943	
4	0.0333333	9.37285	52.2645	43.1643	-5.24997	41.6359	27.0352	-16.9655	38.2986	4.45996	-25.1732	32.2822	-14.1255	9.94526	59.7444	-24.2693	1.17682	53.0365	-43.9344	0.311056	39.1829	-64.319	30.1337	58.5479	-29.5126	26.6941	47.0676	-58.2979	24.6376	34.7836	-77.7918	49.6797	51.558	-25.5345	46.7596	42.7521	-52.1574	44.978	31.8546	-71.2326	70.3581	44.3554	-14.8945	72.3199	37.5752	-37.659	73.4497	29.247	-55.4156	55.4752	64.49	18.635	64.2597	67.6348	42.1183	36.2737	70.6095	32.0911	
5	0.0416667	8.01567	52.0651	41.2468	-5.32841	41.7507	25.4904	-16.4893	37.2328	7.64763	-26.1716	32.4476	-11.1768	5.12767	59.6661	-22.7955	2.71032	51.4978	-47.0846	-8.50873	39.0635	-66.6514	30.3341	58.3815	-30.7961	27.3732	49.5168	-56.5863	21.9505	36.3093	-77.0651	46.314	52.3508	-29.7617	48.3029	44.4231	-50.597	41.3137	33.6182	-67.9065	69.5626	44.1383	-19.2552	68.5221	39.6326	-35.1647	73.2898	30.7568	-57.7802	57.0676	63.4705	14.3253	59.0378	67.04	38.911	33.2687	71.0016	27.4759	
6	0.05	8.37379	49.7866	41.5141	-10.9739	40.6423	27.3178	-23.9365	36.63	5.67696	-32.5566	30.2907	-10.1937	3.62885	58.391	-23.3849	-5.36024	50.8852	-46.4334	-5.91606	39.0312	-66.4514	24.5305	58.4174	-31.9468	21.7848	49.1677	-56.5447	18.897	34.6022	-78.9901	47.6667	51.6833	-30.5551	46.3419	43.6129	-51.3327	41.8762	33.1928	-69.2385	64.2557	44.6093	-17.463	69.2419	36.5395	-37.7137	69.9568	29.8646	-58.6544	51.6638	64.4007	17.2209	54.8441	66.1736	41.113	28.6665	69.513	28.3983	
7	0.0583333	6.83321	47.9304	44.8583	-11.6863	39.813	25.7666	-23.5997	36.1387	5.33664	-33.792	31.4788	-13.2187	0.219513	58.7576	-24.4179	-3.91561	49.2597	-49.2409	-10.2345	38.7616	-69.5796	24.7691	56.6371	-34.9575	20.0538	47.8578	-58.955	19.1288	31.5816	-83.7679	46.4837	49.9837	-32.5513	45.2945	42.314	-53.8447	37.3312	34.1957	-70.4249	63.4188	44.5866	-17.8048	65.0564	38.5235	-36.3168	69.464	31.5954	-58.0346	49.1597	64.8883	11.8985	54.9168	65.8272	41.6354	25.9204	69.4555	30.8965	
8	0.0666667	8.92739	47.0272	37.6995	-11.3213	37.8843	24.2949	-21.206	34.8038	5.0313	-33.0521	29.6266	-12.8209	2.03898	58.1163	-27.2346	-5.19369	51.8047	-49.4288	-8.34609	41.7852	-67.5472	25.5485	57.608	-35.4611	20.2706	47.1628	-62.7142	17.1226	35.8615	-80.2985	43.6141	52.0185	-30.3603	42.0717	43.9949	-52.713	37.8344	32.9596	-75.2649	64.6319	44.2354	-21.9938	63.3748	37.6392	-41.3617	69.0894	30.1603	-57.444	53.8626	63.6349	11.0407	57.8404	63.7312	36.2926	29.8441	66.9216	29.5427	
9	0.075	8.79122	46.2904	40.3607	-10.1757	35.7745	21.0136	-21.3304	32.8808	2.75923	-32.2086	28.2259	-17.1844	5.16656	60.3113	-29.4555	-5.27818	53.9966	-48.0998	-9.18149	39.3204	-71.1726	22.7949	59.8563	-39.713	20.2488	49.2136	-64.8763	16.0126	37.3466	-83.5154	45.3973	53.009	-33.2525	41.4033	45.5781	-55.3914	36.3981	34.7495	-75.9039	67.5199	44.0214	-25.3327	65.1986	38.2773	-44.1881	64.5226	32.7981	-62.9286	50.5906	61.4114	11.9574	58.9661	62.355	32.7843	33.4845	68.2159	27.8925	
10	0.0833333	12.7857	47.4549	33.7185	-10.4347	36.5381	16.5692	-22.0175	30.656	-1.71703	-28.361	25.4788	-22.0865	5.73213	63.0363	-27.772	-4.56961	53.218	-54.4113	-4.48304	38.5948	-71.3074	27.4226	60.9443	-41.6055	25.2069	53.5891	-64.9852	19.3657	37.9415	-86.1978	48.188	54.2575	-39.8127	44.1867	47.5366	-59.5581	37.9748	36.5208	-78.6984	69.3442	44.1569	-28.6195	65.9311	39.528	-47.3973	65.0693	32.1231	-69.2556	53.7317	62.3153	10.8947	61.2226	63.6239	34.4479	34.852	66.4416	25.7897	
11	0.0916667	14.5711	44.9612	35.6164	-2.12525	35.0401	14.8642	-17.9294	29.6369	-7.84782	-26.3271	22.7389	-26.9662	5.88026	62.2725	-31.8156	-0.0332087	49.8369	-56.1103	-3.6041	25.7103	-67.3146	27.7884	62.5862	-39.6945	25.1112	54.3147	-68.0882	17.5694	39.6601	-88.303	49.6983	55.9907	-40.7205	46.8348	48.4999	-61.5752	37.4327	36.7641	-81.9314	66.5154	46.5839	-34.0005	68.3591	39.7627	-52.7373	68.0162	32.7361	-70.045	57.4714	62.733	3.60419	62.8915	61.9826	30.9887	32.8138	67.2294	21.0477	
12	0.1	13.7434	45.2949	33.6439	-1.43128	33.6015	13.1148	-13.3797	27.0965	-4.68489	-21.7815	20.7826	-25.0123	5.09028	61.5638	-35.1094	0.978577	42.8535	-54.5005	-2.58059	18.3202	-54.1176	27.2886	64.4869	-45.3931	26.323	53.5286	-71.0161	20.1901	39.3272	-89.1969	49.2021	57.7639	-42.7763	47.9837	49.8251	-66.3275	36.9062	41.4413	-83.4331	70.3568	48.2612	-34.8851	67.8474	43.7359	-52.7304	66.477	38.3639	-71.7444	57.713	65.2152	4.26349	64.1126	61.5858	28.6859	36.0095	69.1714	23.6349	
13	0.108333	16.9753	48.1598	28.0434	-2.3903	33.9657	10.8988	-12.2569	28.6532	-8.23332	-20.6174	19.5988	-25.5393	8.77523	60.9773	-34.6947	2.37185	38.0219	-51.9505	4.59599	10.2715	-37.7947	32.3041	66.776	-43.5747	25.5281	59.3824	-69.226	18.3594	41.8838	-92.8847	51.573	60.9437	-45.3752	43.002	57.017	-64.2818	40.3444	49.677	-82.8637	71.9573	51.2015	-32.3606	70.6174	48.1469	-55.1696	68.2776	47.9001	-70.3539	57.9286	65.8062	5.45925	64.3591	64.5365	25.8157	35.6355	71.878	22.2707	
